<svg xmlns="http://www.w3.org/2000/svg" width="512" height="512" viewBox="0 0 512 512" version="1.1">
	<path d="M 195.223 58.557 C 192.010 60.807, 192.010 69.193, 195.223 71.443 C 196.445 72.299, 198.195 73, 199.112 73 C 200.028 73, 201.826 73.848, 203.106 74.885 C 207.979 78.831, 204.569 90.346, 195.775 99.644 C 186.778 109.158, 186.187 109.324, 158.500 110.132 C 132.701 110.886, 129.060 111.446, 119.028 116.210 C 110.227 120.389, 98.518 132.059, 94.157 141 C 88.672 152.247, 88.037 157.786, 88.017 194.540 C 87.998 230.701, 88.395 234.089, 93.980 245.500 C 99.711 257.210, 111.615 267.782, 123.313 271.553 C 126.166 272.473, 129.063 273.936, 129.750 274.804 C 131.136 276.554, 131.581 316.646, 130.235 318.527 C 129.831 319.092, 127.025 320.320, 124 321.256 C 105.589 326.952, 90.974 343.513, 88.045 362 C 87.452 365.741, 87.012 387.401, 87.008 413.027 C 87.001 451.718, 87.204 457.846, 88.557 459.777 L 90.113 462 128.057 462 C 164.667 462, 166.070 461.930, 168 460 C 170.948 457.052, 170.715 450.624, 167.545 447.455 C 165.287 445.196, 164.339 445, 155.668 445 C 148.564 445, 145.942 444.635, 145.015 443.518 C 143.646 441.869, 144.022 412.964, 145.455 409.713 C 147.584 404.881, 144.801 405, 256.027 405 L 360.154 405 363.101 407.947 L 366.049 410.895 365.774 427.697 L 365.500 444.500 357 445.053 C 347.153 445.693, 345.679 446.214, 344.135 449.602 C 342.451 453.300, 342.749 456.412, 345.073 459.365 L 347.145 462 382.881 462 C 412.160 462, 418.969 461.744, 420.559 460.581 C 422.424 459.218, 422.512 457.352, 422.805 412.831 C 423.011 381.467, 422.746 364.562, 421.984 360.500 C 418.667 342.824, 404.190 326.527, 386.852 320.952 L 380 318.749 380.015 297.625 C 380.024 286.006, 380.361 276.004, 380.765 275.399 C 381.169 274.793, 384.200 273.296, 387.500 272.072 C 395.147 269.236, 399.286 266.685, 405.409 261.032 C 411.982 254.963, 417.589 246.109, 420.285 237.542 C 422.398 230.824, 422.500 228.865, 422.500 195 C 422.500 164.182, 422.268 158.659, 420.739 153.124 C 418.102 143.582, 412.537 133.830, 406.159 127.574 C 391.547 113.242, 381.231 110, 350.239 110 C 331.765 110, 331.285 109.947, 325.946 107.295 C 314.612 101.666, 306.517 89.516, 307.202 79.161 C 307.496 74.714, 307.566 74.632, 312.428 73.077 C 316.272 71.847, 317.558 70.886, 318.275 68.707 C 319.421 65.229, 318.552 61.552, 315.975 58.975 C 314.054 57.054, 312.416 57, 255.723 57 C 204.595 57, 197.172 57.191, 195.223 58.557 M 225.085 78.620 C 223.938 80.077, 223 82.512, 223 84.030 C 223 88.432, 219.338 99.081, 216.032 104.291 C 212.006 110.636, 205.128 117.213, 198.710 120.856 C 189.855 125.882, 183.934 127.157, 166.763 127.734 C 156.652 128.074, 150.683 128.678, 150.064 129.423 C 148.972 130.739, 148.381 203.189, 149.448 204.916 C 150.440 206.521, 199.189 206.411, 200.800 204.800 C 201.681 203.919, 202.004 195.349, 202.015 172.550 C 202.024 155.472, 202.443 140.848, 202.947 140.052 C 203.538 139.117, 206.128 138.459, 210.255 138.197 C 220.695 137.532, 220.205 135.790, 219.886 172.434 C 219.737 189.558, 219.953 204.115, 220.367 204.784 C 220.931 205.698, 229.164 206, 253.524 206 C 284.539 206, 285.974 205.917, 286.965 204.066 C 287.615 202.852, 288 190.586, 288 171.125 C 288 149.578, 288.337 139.910, 289.104 139.435 C 291.021 138.251, 302.433 137.850, 304 138.913 C 305.291 139.788, 305.453 144.156, 305.162 170.215 C 304.942 190.012, 305.193 201.452, 305.888 203.250 L 306.950 206 333.275 206 C 352.417 206, 359.927 205.673, 360.800 204.800 C 362.561 203.039, 362.514 132.037, 360.750 129.791 C 359.736 128.501, 356.571 128.107, 344 127.705 C 327.273 127.171, 321.814 125.905, 312.371 120.372 C 306.004 116.640, 298.109 108.546, 294.728 102.284 C 293.204 99.460, 291.062 93.628, 289.968 89.325 C 288.874 85.021, 287.148 80.375, 286.132 79 L 284.285 76.500 255.727 76.235 L 227.169 75.970 225.085 78.620 M 241.618 98.552 C 240.432 101.644, 240.958 110.720, 242.393 111.911 C 243.315 112.676, 247.620 112.972, 255.121 112.784 C 266.434 112.501, 266.457 112.495, 267.404 109.797 C 267.995 108.115, 268.003 105.283, 267.426 102.297 L 266.500 97.500 254.368 97.220 C 243.967 96.980, 242.149 97.170, 241.618 98.552 M 123.453 133.914 C 117.021 137.603, 111.486 143.733, 108.135 150.880 L 105.500 156.500 105.500 193.500 C 105.500 235.755, 105.396 235.164, 114.529 244.927 C 119.325 250.055, 128.765 255.635, 130.207 254.193 C 131.418 252.982, 130.721 131.738, 129.500 131.343 C 128.950 131.165, 126.229 132.322, 123.453 133.914 M 380 193.631 L 380 255.262 383.541 254.687 C 391.158 253.451, 400.694 243.301, 403.587 233.350 C 404.834 229.060, 405.043 221.956, 404.797 192.331 C 404.508 157.516, 404.436 156.360, 402.231 151.580 C 397.917 142.226, 387.534 132, 382.350 132 L 380 132 380 193.631 M 165.333 144.211 C 164.299 145.811, 163.560 178.841, 164.452 183.598 L 165.105 187.076 173.802 186.788 L 182.500 186.500 182.500 165 L 182.500 143.500 174.333 143.211 C 168.500 143.004, 165.928 143.290, 165.333 144.211 M 329.250 143.662 C 328.305 144.044, 328 149.386, 328 165.583 L 328 187 336.383 187 C 344.232 187, 344.805 186.856, 345.370 184.750 C 346.413 180.856, 346.069 146.998, 344.965 144.934 C 344.092 143.303, 342.878 143.012, 337.215 143.079 C 333.522 143.122, 329.938 143.385, 329.250 143.662 M 243.937 151.764 C 232.245 157.872, 230.332 173.415, 240.131 182.689 C 245.700 187.959, 251.253 189.162, 259.500 186.884 C 266.820 184.862, 273.043 175.858, 272.978 167.384 C 272.949 163.623, 269.894 157.080, 266.868 154.298 C 260.558 148.497, 252.002 147.551, 243.937 151.764 M 165.350 223.747 C 155.713 223.956, 150.893 224.444, 150.235 225.277 C 149.656 226.012, 149.033 250.153, 148.675 285.741 L 148.080 344.982 150.453 347.741 L 152.826 350.500 175.758 350.500 C 193.106 350.500, 199.072 350.183, 200.258 349.200 C 201.121 348.485, 202.135 345.654, 202.512 342.909 L 203.199 337.919 210.849 338.210 L 218.500 338.500 219.088 342.910 C 219.479 345.840, 220.462 347.956, 222.016 349.214 C 224.214 350.994, 226.147 351.089, 254.143 350.804 C 287.835 350.460, 286.828 350.706, 287.741 342.603 L 288.260 338 296.111 338 C 303.874 338, 303.968 338.031, 304.518 340.750 C 306.669 351.394, 306.172 351.238, 335.500 350.436 C 349.151 350.063, 360.039 349.343, 360.750 348.767 C 362.688 347.198, 362.558 228.146, 360.615 225.489 C 359.309 223.702, 357.767 223.611, 333.365 223.869 C 318.267 224.029, 307.084 224.550, 306.500 225.121 C 305.875 225.732, 305.313 244.163, 305 274.299 L 304.500 322.500 296.500 322.500 L 288.500 322.500 288 273.713 C 287.571 231.899, 287.287 224.794, 286.007 224.004 C 284.616 223.144, 224.145 223.655, 221.250 224.551 C 220.273 224.853, 220 235.302, 220 272.397 C 220 326.570, 220.609 323, 211.363 323 C 201.125 323, 202 327.581, 202 273.965 C 202 218.037, 203.263 222.875, 188.750 223.220 C 183.662 223.341, 173.133 223.578, 165.350 223.747 M 247 231.722 C 240.421 234.193, 236 241.143, 236 249.010 C 236 260.304, 245.122 268.083, 256.305 266.325 C 266.849 264.667, 273.773 252.471, 269.936 242.315 C 268.489 238.484, 264.174 234.042, 260.282 232.377 C 257.077 231.006, 249.854 230.649, 247 231.722 M 318.422 247.344 C 318.138 248.083, 318.040 252.020, 318.203 256.094 L 318.500 263.500 328.250 263.786 L 338 264.072 338 255.036 L 338 246 328.469 246 C 321.412 246, 318.803 246.349, 318.422 247.344 M 166.229 280.837 C 165.253 281.457, 165.021 286.497, 165.229 302.572 L 165.500 323.500 174.722 323.787 C 185.636 324.127, 184.878 325.226, 185.253 308.500 L 185.500 297.500 188.497 297.160 C 192.392 296.718, 192.966 295.651, 192.985 288.832 C 193.009 279.683, 193.486 279.998, 179.643 280.015 C 172.964 280.024, 166.928 280.394, 166.229 280.837 M 229.250 280.662 C 228.398 281.006, 228 283.686, 228 289.083 L 228 297 251.891 297 L 275.781 297 276.154 293.750 C 276.360 291.962, 276.365 288.137, 276.167 285.250 L 275.807 280 253.153 280.079 C 240.694 280.122, 229.938 280.385, 229.250 280.662 M 317.250 280.662 C 316.398 281.006, 316 283.686, 316 289.083 L 316 297 331 297 L 346 297 346 288.500 L 346 280 332.250 280.079 C 324.688 280.122, 317.938 280.385, 317.250 280.662 M 125.695 340.494 C 117.219 343.408, 110.885 349.484, 106.876 358.547 C 104.786 363.273, 104.672 365.135, 104.208 402.050 C 103.852 430.457, 104.033 441.194, 104.897 442.808 C 105.978 444.828, 106.817 445, 115.560 445 C 124.826 445, 125.072 444.940, 126.025 442.435 C 126.561 441.024, 127 433.456, 127 425.616 C 127 415.817, 127.472 409.774, 128.510 406.279 C 130.622 399.166, 137.233 392.088, 145.200 388.409 L 151.500 385.500 250.873 385.222 C 315.868 385.040, 352.169 385.300, 355.807 385.972 C 367.272 388.092, 376.083 394.477, 380.932 404.179 C 383.976 410.271, 384 410.447, 384 426.460 C 384 437.680, 384.366 442.966, 385.200 443.800 C 387.124 445.724, 402.470 445.387, 404.481 443.376 C 405.935 441.922, 406.073 437.615, 405.802 402.126 C 405.510 363.856, 405.425 362.339, 403.321 357.783 C 400.454 351.578, 393.246 343.977, 387.513 341.113 C 381.549 338.135, 380.002 338.774, 379.994 344.219 C 379.982 354.099, 375.160 361.771, 366.186 366.192 L 361.500 368.500 259.061 368.782 C 188.362 368.976, 155.005 368.728, 151.405 367.980 C 139.992 365.611, 132.280 357.184, 131.264 345.972 C 130.963 342.656, 130.442 339.773, 130.106 339.565 C 129.770 339.358, 127.785 339.776, 125.695 340.494" stroke="none" fill="black" fill-rule="evenodd"/>
</svg>