<svg xmlns="http://www.w3.org/2000/svg" width="512" height="512" viewBox="0 0 512 512" version="1.1">
	<path d="M 241.325 48.068 C 204.081 50.934, 163.893 66.484, 133.051 89.961 C 91.709 121.432, 64.391 168.069, 54.536 224 C 52.265 236.890, 51.396 268.514, 52.913 283.053 C 56.760 319.907, 71.387 358.137, 92.483 386.474 C 111.453 411.956, 135.431 432.180, 163.143 446.072 C 191.170 460.121, 221.679 467.010, 255.801 466.992 C 291.023 466.973, 316.420 461.254, 346.500 446.566 C 394.698 423.032, 427.979 385.787, 447.458 333.582 C 456.560 309.189, 460.257 288.552, 460.281 262 C 460.316 224.640, 452.585 192.005, 435.778 158.562 C 407.885 103.062, 351.334 61.125, 290.083 50.517 C 282.613 49.224, 255.299 46.777, 252.500 47.151 C 251.950 47.225, 246.921 47.637, 241.325 48.068 M 231.500 104.554 C 175.526 115.030, 130.807 149.444, 109.115 198.739 C 89.713 242.829, 90.802 300.906, 111.813 342.612 C 118.546 355.978, 132.676 374.179, 142.195 381.750 L 146.281 385 253.991 385 L 361.700 385 365.600 382.159 C 370.996 378.228, 381.272 367.124, 388.887 356.995 C 410.065 328.829, 420.812 280.621, 414.859 240.500 C 405.095 174.702, 356.137 122.088, 290 106.317 C 281.068 104.187, 276.513 103.757, 259.500 103.435 C 244.610 103.154, 237.456 103.440, 231.500 104.554 M 200.218 128.172 C 194.937 129.354, 189.506 134.516, 188.058 139.731 C 187.482 141.804, 187.009 146.333, 187.006 149.795 C 187.001 155.142, 186.630 156.461, 184.545 158.545 C 182.261 160.830, 181.386 161, 171.911 161 C 159.497 161, 155.194 162.197, 149.459 167.245 C 142.146 173.682, 141.996 174.802, 142.024 222.932 C 142.037 245.794, 142.446 266.217, 142.933 268.316 C 144.216 273.840, 148.681 279.728, 153.930 282.813 C 158.473 285.484, 158.632 285.502, 181.146 285.817 C 207.620 286.187, 210.600 285.668, 216.603 279.649 C 220.784 275.455, 223 269.344, 223 262.007 C 223 260.389, 224.064 257.873, 225.411 256.306 L 227.823 253.500 254.161 253 C 282.798 252.456, 283.609 252.302, 289.128 246.339 C 293.318 241.811, 294.130 239.397, 294.872 229.248 L 295.571 219.689 300.407 215.433 C 309.435 207.489, 308.986 209.645, 308.993 174.210 C 309 145.203, 308.858 142.643, 307.059 139.115 C 304.523 134.145, 299.007 129.373, 294.277 128.060 C 289.480 126.728, 206.230 126.827, 200.218 128.172 M 203.500 141.155 C 199.773 143.193, 199.001 145.207, 198.978 152.941 C 198.952 162.016, 196.762 167.608, 191.867 171.099 C 188.827 173.267, 187.190 173.551, 175 174.023 C 161.381 174.550, 157.896 175.428, 156.139 178.773 C 155.640 179.723, 155.067 199.728, 154.866 223.228 L 154.500 265.957 157.770 269.228 L 161.040 272.500 182.315 272.500 C 200.958 272.500, 203.923 272.282, 206.281 270.736 C 210.588 267.913, 212.101 264.635, 212.885 256.429 C 213.567 249.285, 213.876 248.502, 217.215 245.441 C 219.193 243.629, 222.541 241.666, 224.656 241.079 C 226.879 240.461, 238.479 240.009, 252.173 240.006 L 275.847 240 278.904 237.427 C 282.154 234.693, 284.252 228.978, 283.966 223.643 C 283.556 215.995, 283.937 215.077, 290.500 207.925 L 297 200.842 297 174.372 C 297 146.293, 296.578 143.450, 292.055 141.030 C 289.322 139.567, 206.189 139.684, 203.500 141.155 M 334.223 185.557 L 332 187.113 332.015 226.307 C 332.024 247.863, 332.398 266.078, 332.846 266.785 C 333.974 268.563, 339.961 269.369, 343.094 268.165 L 345.688 267.168 346.275 227.834 C 346.938 183.431, 347.017 184, 340.199 184 C 338.135 184, 335.445 184.701, 334.223 185.557 M 357.571 185.571 C 356.195 186.948, 356 192.108, 356 227.096 L 356 267.050 358.705 268.078 C 361.360 269.087, 368.597 268.468, 369.395 267.163 C 369.618 266.798, 369.958 248.371, 370.150 226.214 C 370.454 191.234, 370.302 185.803, 369 184.979 C 366.582 183.450, 359.316 183.827, 357.571 185.571 M 119.026 296.963 C 117.783 297.749, 117.569 301.999, 117.665 324.004 C 117.728 338.363, 118.090 350.424, 118.471 350.806 C 119.681 352.020, 166.730 352.215, 168.972 351.015 C 170.929 349.968, 171 349.026, 171 324.165 C 171 305.459, 170.671 298.071, 169.800 297.200 C 168.331 295.731, 121.321 295.511, 119.026 296.963 M 251.250 296.653 C 250.354 297.021, 250 300.369, 250 308.476 C 250 317.867, 249.732 319.889, 248.418 320.393 C 247.548 320.727, 239.046 321, 229.525 321 C 210.294 321, 211 320.733, 211 328.010 C 211 334.726, 211.826 335, 232.071 335 L 250 335 250 342.300 C 250 346.644, 250.486 350.086, 251.200 350.800 C 253.048 352.648, 295.350 352.488, 296.894 350.627 C 297.699 349.658, 297.955 341.500, 297.767 322.877 L 297.500 296.500 275 296.319 C 262.625 296.220, 251.938 296.370, 251.250 296.653 M 338.200 297.200 C 337.332 298.068, 337 305.195, 337 322.977 C 337 343.604, 337.250 347.912, 338.557 349.777 C 340.087 351.962, 340.496 352, 362.622 352 C 376.226 352, 385.897 351.590, 387.066 350.965 C 388.901 349.982, 389 348.614, 389 324.165 C 389 305.459, 388.671 298.071, 387.800 297.200 C 386.096 295.496, 339.904 295.496, 338.200 297.200 M 131 323.500 L 131 338 144 338 L 157 338 157 323.500 L 157 309 144 309 L 131 309 131 323.500 M 263.667 309.667 C 263.300 310.033, 263 316.558, 263 324.167 L 263 338 273.500 338 L 284 338 284 323.500 L 284 309 274.167 309 C 268.758 309, 264.033 309.300, 263.667 309.667 M 351.697 309.637 C 351.314 310.020, 351 316.572, 351 324.197 L 351 338.062 363.250 337.781 L 375.500 337.500 375.500 323.500 L 375.500 309.500 363.947 309.220 C 357.592 309.066, 352.080 309.253, 351.697 309.637" stroke="none" fill="black" fill-rule="evenodd"/>
</svg>