<svg id="Calque_1" data-name="Calque 1" xmlns="http://www.w3.org/2000/svg" viewBox="0 0 85.04 53.48"><defs><style>.cls-1{fill:none;}</style></defs><title>ldi-logo</title><polygon points="79.04 17.67 81.03 17.67 84.74 11.24 66.92 11.24 70.63 17.67 72.61 17.67 72.61 46.47 70.63 46.47 66.92 52.9 84.74 52.9 81.03 46.47 79.04 46.47 79.04 17.67"/><polygon class="cls-1" points="50.94 17.91 50.94 46.46 52.6 46.46 61.84 37.21 61.84 27.13 52.62 17.91 50.94 17.91"/><path d="M55.27,11.48H38.73l3.71,6.43H44.5V46.46h-.87L27.39,30.22,11.16,46.46V7H21V.58H4.73V.63h0v10H.31v2.85H4.73V17H.3v2.86H4.73v33h9.09L27.39,39.31,41,52.86l14.31,0,13-13V24.47Zm6.57,25.73L52.6,46.46H50.93V17.91h1.69l9.22,9.22Z"/></svg>