<svg xmlns="http://www.w3.org/2000/svg" width="512" height="512" viewBox="0 0 512 512" version="1.1">
	<path d="M 226.658 64.569 C 182.277 71.472, 138.890 95.908, 110.540 129.967 C 87.565 157.568, 71.806 195.110, 66.449 235 C 64.781 247.421, 64.566 276.056, 66.051 288.026 C 72.853 342.850, 99.288 388.914, 143 422.113 C 183.708 453.031, 241.348 465.603, 293.500 454.939 C 314.312 450.683, 340.938 440.107, 357.677 429.446 C 360.880 427.407, 367.314 422.768, 371.975 419.139 C 396.374 400.141, 413.262 379.246, 426.535 351.635 C 441.092 321.351, 446.930 292.339, 445.677 256.500 C 444.497 222.734, 438.578 198.604, 424.092 168.500 C 412.305 144.006, 399.282 126.440, 380.549 109.767 C 352.396 84.709, 319.049 69.181, 283.338 64.500 C 269.153 62.640, 238.820 62.677, 226.658 64.569 M 222.472 80.042 C 214.059 81.142, 204.996 83.598, 194.710 87.564 C 177.922 94.037, 153.430 107.789, 154.259 110.276 C 154.870 112.109, 200.475 111.312, 204.178 109.403 C 205.651 108.644, 210.259 104.868, 214.418 101.011 C 222.297 93.706, 225.370 92.513, 228.429 95.571 C 231.798 98.941, 230.405 101.553, 220.570 110.310 C 206.187 123.116, 208.870 122.415, 172 123 L 140.500 123.500 135.881 126.215 C 129.873 129.748, 118.854 141.603, 111.726 152.207 C 96.047 175.529, 82.842 213.681, 81.328 240.033 C 80.739 250.294, 80.789 250.643, 83.274 253.533 L 85.826 256.500 132.134 256.779 C 180.660 257.072, 182.913 256.900, 185.153 252.714 C 185.745 251.608, 187.481 245.707, 189.011 239.601 C 190.540 233.496, 193.152 225.352, 194.815 221.505 C 196.986 216.484, 197.545 214.157, 196.797 213.255 C 196.061 212.368, 192.050 212.003, 183.128 212.010 L 170.500 212.021 167.726 217.982 C 165.526 222.711, 164.015 224.493, 160.418 226.601 C 151.366 231.906, 141.408 230.515, 134.617 222.998 C 126.961 214.523, 127.707 202.031, 136.249 195.690 C 145.537 188.794, 157.766 189.709, 165.437 197.874 L 168.374 201 189.437 200.984 C 209.465 200.968, 210.679 200.857, 214.141 198.734 C 226.034 191.439, 229.242 189.797, 237.246 186.911 C 244.289 184.372, 246.389 183.148, 247.546 180.910 C 248.757 178.569, 249 170.265, 249 131.185 C 249 74.943, 249.942 78.921, 236.677 79.127 C 232.180 79.197, 225.787 79.608, 222.472 80.042 M 263.604 81.305 L 261 83.909 261 130.487 C 261 168.260, 261.266 177.701, 262.407 180.432 C 263.710 183.551, 264.574 184.042, 274.128 187.090 C 281.861 189.557, 286.647 191.869, 293.249 196.330 L 302.055 202.280 322.771 201.551 L 343.488 200.821 349.415 197.163 C 354.698 193.902, 356.072 193.505, 362.080 193.503 C 367.976 193.500, 369.363 193.881, 373.152 196.542 C 379.181 200.775, 381.963 206.051, 381.984 213.290 C 382.028 228.857, 367.038 239.300, 353.500 233.134 C 348.004 230.631, 342.269 224.041, 341.469 219.310 C 340.166 211.599, 340.737 212, 331.058 212 C 319.705 212, 316 212.739, 316 215.004 C 316 215.969, 317.141 219.250, 318.535 222.296 C 319.930 225.342, 322.369 233.598, 323.956 240.643 C 326.175 250.497, 327.355 253.869, 329.066 255.255 C 331.151 256.943, 334.242 257.039, 377.733 256.779 L 424.174 256.500 426.725 253.534 C 429.220 250.632, 429.263 250.327, 428.672 239.534 C 426.786 205.066, 410.348 164.465, 387.384 137.551 C 383.903 133.472, 378.905 128.641, 376.278 126.817 L 371.500 123.500 339 123 C 301.371 122.421, 304.925 123.318, 290.696 110.806 C 279.587 101.037, 278.447 98.782, 282.831 95.250 C 285.847 92.819, 288.844 93.896, 294.726 99.523 C 306.607 110.886, 305.185 110.429, 330.410 111 C 353.857 111.531, 356.294 111.398, 355.716 109.623 C 355.088 107.694, 343.933 100.428, 333.500 95.153 C 313.466 85.023, 296.867 80.256, 278.368 79.318 C 266.236 78.703, 266.201 78.708, 263.604 81.305 M 213.736 140.250 C 211.565 141.899, 209.897 146.534, 210.680 148.741 C 213.555 156.846, 226 155.139, 226 146.640 C 226 140.977, 218.159 136.891, 213.736 140.250 M 283.174 143.314 C 280.466 146.197, 280.394 149.960, 282.984 153.253 C 285.589 156.564, 289.280 157.424, 292.887 155.558 C 297.548 153.148, 298.417 148.071, 294.927 143.635 C 292.159 140.115, 286.329 139.956, 283.174 143.314 M 183.315 153.985 C 178.396 156.016, 177.410 163.605, 181.635 166.927 C 185.130 169.677, 188.546 169.545, 191.545 166.545 C 197.551 160.540, 191.140 150.756, 183.315 153.985 M 318.455 157.455 C 315.455 160.454, 315.323 163.870, 318.073 167.365 C 322.264 172.693, 332 169.516, 332 162.820 C 332 155.785, 323.494 152.415, 318.455 157.455 M 106.605 179.537 C 105.228 180.915, 104.995 184.363, 104.968 203.821 C 104.942 222.177, 104.657 226.870, 103.468 228.441 C 101.344 231.250, 101.665 234.652, 104.223 236.443 C 107.252 238.566, 108.349 238.418, 111.923 235.411 L 115 232.822 115 207.034 C 115 187.603, 114.692 180.998, 113.750 180.245 C 111.203 178.207, 108.230 177.913, 106.605 179.537 M 399.693 178.700 C 396.535 179.519, 396 183.599, 396.004 206.815 C 396.007 227.513, 396.178 229.779, 397.950 232.686 C 401.430 238.393, 407.573 239.536, 410.035 234.935 C 410.918 233.285, 410.636 232.054, 408.564 228.519 C 406.022 224.181, 406 223.955, 406 202.107 C 406 181.343, 405.888 180.011, 404.066 179.035 C 403.002 178.466, 401.989 178.052, 401.816 178.116 C 401.642 178.180, 400.687 178.443, 399.693 178.700 M 242.634 199.586 C 223.342 204.256, 207.415 221.262, 202.442 242.500 C 200.189 252.122, 200.872 269.195, 203.840 277.432 C 212.267 300.824, 232.946 316.022, 256.302 315.988 C 271.588 315.966, 284.381 310.704, 294.948 300.093 C 305.978 289.017, 311.159 275.304, 311.232 257 C 311.303 238.994, 305.715 225.601, 293.286 213.994 C 278.463 200.150, 260.920 195.160, 242.634 199.586 M 244.079 222.583 C 236.035 225.508, 228.217 231.863, 223.747 239.110 C 218.696 247.299, 217.913 259.494, 221.864 268.426 C 224.691 274.817, 233.191 283.455, 239.891 286.745 C 244.931 289.221, 246.565 289.500, 256 289.500 C 266.045 289.500, 266.772 289.353, 272.768 286.101 C 284.699 279.632, 291.401 268.972, 291.429 256.423 C 291.442 250.439, 290.942 248.324, 288.192 242.738 C 284.403 235.042, 277.602 228.420, 269.331 224.373 C 262.301 220.934, 250.847 220.122, 244.079 222.583 M 86.242 270.479 C 81.336 272.634, 80.661 275.556, 81.967 288.981 C 84.641 316.474, 94.390 343.801, 109.688 366.689 C 115.999 376.131, 129.807 391.287, 134.378 393.791 C 137.101 395.282, 141.994 395.564, 172.683 396 L 207.866 396.500 213.294 400.500 C 216.279 402.700, 221.462 406.525, 224.812 409 C 228.161 411.475, 231.179 414.288, 231.518 415.250 C 232.481 417.982, 231.068 421.024, 228.358 422.054 C 225.268 423.229, 222.714 421.974, 214 415 C 203.591 406.669, 205.096 407, 177.609 407 C 161.675 407, 152.893 407.365, 152.473 408.044 C 151.484 409.644, 153.808 411.892, 162 417.258 C 172.088 423.867, 183.688 429.296, 197.791 434.010 C 212.599 438.960, 221.968 440.940, 234.150 441.693 C 243.575 442.276, 243.862 442.229, 246.400 439.690 L 249 437.091 249 385.156 C 249 337.140, 248.868 333.067, 247.250 331.177 C 246.281 330.045, 242.152 328.160, 238 326.954 C 228.675 324.245, 224.566 322.195, 214.745 315.352 C 210.480 312.380, 205.755 309.712, 204.245 309.423 C 201.369 308.873, 183.075 311.072, 174.500 312.997 C 170.158 313.973, 169.120 314.717, 166.609 318.656 C 158.993 330.606, 145.788 333.243, 135.621 324.845 C 125.687 316.640, 125.370 300.551, 135 293.258 C 139.416 289.914, 143.720 288.739, 149.917 289.188 C 156.716 289.679, 162.007 292.761, 165.879 298.484 C 167.637 301.082, 168.979 302, 171.019 302 C 175.828 302, 193.426 298.003, 194.839 296.589 C 195.981 295.447, 195.548 293.519, 192.098 284.394 C 189.844 278.433, 187.087 272.643, 185.973 271.528 C 184.001 269.555, 182.671 269.494, 136.723 269.274 C 97.582 269.087, 88.942 269.293, 86.242 270.479 M 330.263 270.116 C 326.522 271.196, 325.659 272.638, 320.497 286.433 C 316.026 298.379, 315.823 298.063, 329.547 300.534 L 338.923 302.222 344.711 296.191 C 353.458 287.077, 361.989 285.657, 371.851 291.673 C 377.254 294.970, 382 303.072, 382 309 C 382 314.490, 377.254 322.965, 372.229 326.448 C 368.851 328.789, 366.657 329.480, 361.729 329.752 C 356.243 330.055, 354.874 329.730, 350.246 327.025 C 346.343 324.745, 344.214 322.578, 341.971 318.603 C 339.064 313.451, 338.736 313.209, 333.225 312.150 C 330.076 311.545, 323.426 310.567, 318.447 309.975 C 308.001 308.735, 306.419 309.128, 298.730 314.874 C 291.465 320.303, 282.486 324.608, 273.299 327.065 C 268.716 328.291, 264.778 329.990, 263.750 331.186 C 262.132 333.069, 262 337.155, 262 385.538 L 262 437.855 264.635 439.927 C 271.129 445.036, 301.324 439.851, 326.240 429.348 C 343.360 422.132, 360.873 410.473, 358.363 407.963 C 357.652 407.252, 349.203 406.998, 332.899 407.199 L 308.500 407.500 303.676 411 C 285.403 424.256, 284.607 424.607, 281 421 C 277.370 417.370, 278.437 415.586, 289.082 407.486 C 304.614 395.668, 302.018 396.268, 341.301 395.428 L 375.102 394.705 379.631 391.706 C 382.122 390.056, 386.796 385.642, 390.019 381.898 C 410.993 357.529, 425.935 322.093, 428.932 289.613 C 430.068 277.298, 428.436 272.045, 422.872 270.105 C 418.920 268.728, 335.035 268.737, 330.263 270.116 M 103.200 286.200 C 101.570 287.830, 101.741 292.074, 103.532 294.441 C 104.715 296.006, 105 300.479, 105 317.491 C 105 339.778, 105.241 341, 109.643 341 C 114.500 341, 115 338.423, 115 313.412 C 115 291.514, 114.889 290.128, 112.927 287.635 C 110.671 284.767, 105.409 283.991, 103.200 286.200 M 398.923 287.923 L 396 290.846 396 314.352 C 396 334.387, 396.232 338.089, 397.571 339.429 C 399.744 341.601, 403.712 341.406, 404.965 339.066 C 405.576 337.923, 406.009 329.018, 406.022 317.316 C 406.043 299.189, 406.211 297.287, 408 295 C 410.211 292.173, 410.591 287.991, 408.800 286.200 C 406.621 284.021, 402.023 284.823, 398.923 287.923 M 320.223 344.557 C 318.675 345.640, 318 347.135, 318 349.475 C 318 354.225, 318.833 355.862, 322.113 357.558 C 325.720 359.424, 329.411 358.564, 332.016 355.253 C 334.560 352.018, 334.532 348.946, 331.927 345.635 C 329.494 342.541, 323.844 342.020, 320.223 344.557 M 285.321 351.150 C 278.483 354.578, 281.037 365.993, 288.692 366.210 C 299.456 366.516, 301.039 352.286, 290.434 350.541 C 288.820 350.275, 286.520 350.549, 285.321 351.150 M 181.073 354.635 C 177.440 359.253, 179.140 365.231, 184.598 367.032 C 190.016 368.820, 194.908 365.231, 194.968 359.424 C 195.040 352.527, 185.356 349.189, 181.073 354.635 M 217 355 C 214.864 357.136, 214.362 361.939, 215.962 364.929 C 216.491 365.917, 218.257 367.278, 219.887 367.953 C 225.990 370.481, 232.103 364.463, 229.888 358.108 C 229.284 356.375, 227.967 354.517, 226.961 353.979 C 223.942 352.363, 219.145 352.855, 217 355" stroke="none" fill="black" fill-rule="evenodd"/>
</svg>