<svg xmlns="http://www.w3.org/2000/svg" width="512" height="512" viewBox="0 0 512 512" version="1.1">
	<path d="M 249 27.752 C 246.883 28.809, 244.777 30.979, 243.670 33.244 C 241.305 38.084, 242.672 42.760, 247.652 46.865 C 250.386 49.118, 251.084 50.362, 250.828 52.519 C 250.538 54.961, 249.857 55.445, 245 56.659 C 226.382 61.312, 212.089 75.044, 207.492 92.693 C 205.630 99.839, 205.585 112.854, 207.399 119.664 C 212.042 137.103, 227.168 151.502, 244.610 155.087 L 250.721 156.342 251.355 165.921 C 252.175 178.296, 252.190 224.341, 251.375 226.465 C 251.031 227.361, 247.994 229.349, 244.625 230.883 C 241.256 232.418, 237.129 234.834, 235.454 236.254 C 231.228 239.834, 227.169 247.708, 226.248 254.115 L 225.473 259.500 184.758 259.761 L 144.044 260.022 143.422 257.261 C 141.518 248.814, 140.489 245.876, 137.282 239.748 C 132.978 231.519, 123.549 222.351, 115.452 218.521 C 97.410 209.985, 77.614 212.117, 61.433 224.337 C 53.199 230.556, 46.916 239.337, 43.959 248.760 C 41.110 257.837, 41.046 271.993, 43.814 280.748 C 49.308 298.128, 64.759 311.374, 83.317 314.614 C 100.994 317.700, 117.469 312.701, 129.569 300.580 C 136.637 293.499, 140.401 286.390, 142.557 276.050 C 143.406 271.978, 144.329 268.276, 144.609 267.823 C 144.889 267.370, 163.530 267, 186.033 267 L 226.949 267 228.387 269.781 C 230.835 274.515, 239.381 281.740, 244.124 283.086 C 246.531 283.768, 249.013 284.816, 249.641 285.414 C 251.047 286.753, 252.546 376.797, 251.195 378.802 C 250.713 379.517, 247.655 380.724, 244.400 381.484 C 236.220 383.392, 227.839 387.174, 230.500 387.757 C 231.600 387.997, 233.732 389.355, 235.238 390.772 C 241.936 397.080, 238.413 408.168, 228.975 410.484 C 224.862 411.494, 219.808 407.405, 217.948 401.563 L 216.395 396.688 213.215 401.489 C 203.150 416.685, 201.688 437.297, 209.505 453.820 C 228.527 494.029, 286.099 491.241, 302.006 449.340 C 305.060 441.295, 305.758 428.532, 303.610 420 C 298.642 400.264, 283.226 384.888, 264.513 381.003 L 259 379.858 259 332.559 L 259 285.260 263.548 283.987 C 269.584 282.296, 275.229 278.078, 279.607 271.984 L 283.188 267 327.035 267 C 357.110 267, 371.090 267.336, 371.544 268.070 C 371.907 268.659, 372.831 272.147, 373.596 275.820 C 379.009 301.812, 403.079 318.614, 430.079 315.246 C 441.578 313.811, 449.810 309.980, 458.143 302.185 C 469.214 291.829, 473.967 280.481, 473.988 264.355 C 474.012 245.682, 465.890 230.711, 450.500 221.063 C 432.026 209.481, 406.032 212.377, 388.716 227.945 C 380.898 234.975, 375.032 245.606, 372.549 257.250 L 371.962 260 328.120 260 L 284.279 260 283.664 254.811 C 282.336 243.602, 274.885 233.962, 264.576 230.116 L 259.500 228.223 259.500 192.498 L 259.500 156.773 266.809 154.916 C 276.593 152.432, 283.134 148.714, 290.431 141.492 C 300.369 131.654, 305 120.532, 305 106.500 C 305 81.996, 288.377 61.116, 264.750 55.941 C 259.623 54.818, 259 54.411, 259 52.187 C 259 50.559, 260.389 48.410, 263 46 C 266.282 42.970, 267 41.642, 267 38.604 C 267 33.497, 264.726 29.572, 260.643 27.635 C 256.236 25.544, 253.362 25.573, 249 27.752 M 152.347 117.095 C 124.657 121.721, 106.379 145.158, 108.323 173.543 C 111.305 217.087, 162.429 236.494, 194.918 206.415 C 199.518 202.156, 202.061 198.663, 205.259 192.210 C 209.408 183.839, 209.508 183.397, 209.852 171.934 C 210.248 158.745, 208.955 152.519, 203.799 142.801 C 197.195 130.353, 181.452 119.334, 167 117.045 C 159.730 115.893, 159.535 115.894, 152.347 117.095 M 333 119.276 C 314.405 125.639, 302.432 138.909, 298.511 157.500 C 296.650 166.326, 296.650 171.674, 298.511 180.500 C 303.621 204.733, 323.900 221, 349 221 C 371.146 221, 389.656 208.086, 397.133 187.419 C 400.248 178.807, 400.225 162.063, 397.084 153.038 C 391.208 136.149, 378.979 123.854, 363.217 118.985 C 354.206 116.202, 341.629 116.323, 333 119.276 M 154.034 132.752 C 146.491 136.557, 145.140 144.986, 151.115 150.961 C 156.536 156.382, 166.086 154.552, 169.458 147.447 C 171.849 142.409, 170.839 137.944, 166.434 134.076 C 162.418 130.550, 159.101 130.196, 154.034 132.752 M 341.117 133.631 C 338.030 135.793, 335.799 141.308, 336.614 144.758 C 337.966 150.474, 344.891 155.317, 350.249 154.293 C 351.760 154.004, 354.348 152.229, 355.999 150.349 C 360.224 145.537, 360.256 139.103, 356.077 134.923 C 353.649 132.495, 352.332 132, 348.299 132 C 345.430 132, 342.493 132.667, 341.117 133.631 M 398.328 225.394 C 396.105 227.307, 395.545 228.633, 395.545 231.996 C 395.545 235.509, 396.100 236.700, 398.900 239.202 C 401.626 241.638, 402.839 242.087, 405.377 241.601 C 412.714 240.195, 415.723 230.428, 410.354 225.452 C 406.880 222.233, 402.030 222.210, 398.328 225.394 M 77.239 228.545 C 74.478 230.479, 73.028 235.620, 74.238 239.184 C 75.333 242.408, 78.993 245, 82.449 245 C 85.175 245, 90.797 240.435, 91.069 238 C 92.008 229.606, 83.768 223.972, 77.239 228.545 M 249.316 244.904 C 244.275 247.240, 242 251.173, 242 257.550 C 242 261.505, 242.508 262.708, 245.400 265.600 C 248.292 268.492, 249.495 269, 253.450 269 C 259.324 269, 263.504 266.860, 265.619 262.769 C 271.568 251.265, 260.875 239.546, 249.316 244.904 M 157.992 301.083 C 138.445 303.219, 122.389 316.209, 115.932 335.113 C 112.866 344.090, 112.855 358.042, 115.909 366.887 C 124.124 390.685, 146.494 403.959, 172.096 400.227 C 203.138 395.703, 221.234 366.449, 212.154 335.472 C 208.274 322.234, 195.740 309.046, 182.225 303.979 C 175.414 301.425, 165.598 300.252, 157.992 301.083 M 332.945 302.885 C 316.064 308.288, 302.744 322.135, 299.061 338.112 C 297.596 344.464, 297.797 357.648, 299.453 363.869 C 304.655 383.413, 320.381 397.279, 340.663 400.204 C 362.638 403.374, 382.410 393.086, 392.160 373.409 C 395.996 365.667, 396.338 364.304, 396.789 354.932 C 397.340 343.500, 396.084 336.156, 392.270 328.500 C 385.897 315.705, 375.886 306.898, 363.295 303.009 C 354.884 300.412, 340.854 300.354, 332.945 302.885" stroke="none" fill="black" fill-rule="evenodd"/>
</svg>