<?xml version="1.0" encoding="UTF-8" standalone="no"?>
<!-- Created with Inkscape (http://www.inkscape.org/) -->

<svg
   xmlns:dc="http://purl.org/dc/elements/1.1/"
   xmlns:cc="http://creativecommons.org/ns#"
   xmlns:rdf="http://www.w3.org/1999/02/22-rdf-syntax-ns#"
   xmlns:svg="http://www.w3.org/2000/svg"
   xmlns="http://www.w3.org/2000/svg"
   xmlns:sodipodi="http://sodipodi.sourceforge.net/DTD/sodipodi-0.dtd"
   xmlns:inkscape="http://www.inkscape.org/namespaces/inkscape"
   width="45.962746mm"
   height="47.677006mm"
   viewBox="0 0 162.86012 168.93428"
   id="svg2"
   version="1.1"
   inkscape:version="0.91 r13725"
   sodipodi:docname="logo.svg">
  <defs
     id="defs4">
    <clipPath
       id="clipPath3348"
       clipPathUnits="userSpaceOnUse">
      <path
         inkscape:connector-curvature="0"
         id="path3350"
         d="M 0,0 504,0 504,720 0,720 0,0 Z" />
    </clipPath>
    <clipPath
       id="clipPath3388"
       clipPathUnits="userSpaceOnUse">
      <path
         inkscape:connector-curvature="0"
         id="path3390"
         d="m 227.52,596.917 79.527,0 0,13.925 -79.527,0 0,-13.925 z" />
    </clipPath>
    <clipPath
       id="clipPath3929"
       clipPathUnits="userSpaceOnUse">
      <path
         inkscape:connector-curvature="0"
         id="path3931"
         d="m 0,0 425.197,0 0,561.26 L 0,561.26 0,0 Z" />
    </clipPath>
    <clipPath
       id="clipPath4073"
       clipPathUnits="userSpaceOnUse">
      <path
         inkscape:connector-curvature="0"
         id="path4075"
         d="m 0,0 425.197,0 0,561.26 L 0,561.26 0,0 Z" />
    </clipPath>
    <clipPath
       id="clipPath4083"
       clipPathUnits="userSpaceOnUse">
      <path
         inkscape:connector-curvature="0"
         id="path4085"
         d="m -1,565.094 427.197,0 0,-247.868 -427.197,0 0,247.868 z" />
    </clipPath>
    <clipPath
       id="clipPath4087"
       clipPathUnits="userSpaceOnUse">
      <path
         inkscape:connector-curvature="0"
         id="path4089"
         d="m 0,323.41 425.197,0 0,221.04 L 0,544.45 0,323.41 Z" />
    </clipPath>
    <clipPath
       id="clipPath4091"
       clipPathUnits="userSpaceOnUse">
      <path
         inkscape:connector-curvature="0"
         id="path4093"
         d="m 0,323.41 425.197,0 0,221.04 L 0,544.45 0,323.41 Z" />
    </clipPath>
    <clipPath
       id="clipPath4095"
       clipPathUnits="userSpaceOnUse">
      <path
         inkscape:connector-curvature="0"
         id="path4097"
         d="m 0,323.41 425.197,0 0,221.04 L 0,544.45 0,323.41 Z" />
    </clipPath>
    <clipPath
       id="clipPath4099"
       clipPathUnits="userSpaceOnUse">
      <path
         inkscape:connector-curvature="0"
         id="path4101"
         d="m 0,323.41 425.197,0 0,221.04 L 0,544.45 0,323.41 Z" />
    </clipPath>
    <clipPath
       id="clipPath4103"
       clipPathUnits="userSpaceOnUse">
      <path
         inkscape:connector-curvature="0"
         id="path4105"
         d="m 0,323.41 425.197,0 0,221.04 L 0,544.45 0,323.41 Z" />
    </clipPath>
    <clipPath
       id="clipPath4107"
       clipPathUnits="userSpaceOnUse">
      <path
         inkscape:connector-curvature="0"
         id="path4109"
         d="m 0,323.41 425.197,0 0,221.04 L 0,544.45 0,323.41 Z" />
    </clipPath>
    <clipPath
       id="clipPath4111"
       clipPathUnits="userSpaceOnUse">
      <path
         inkscape:connector-curvature="0"
         id="path4113"
         d="m 0,323.41 425.197,0 0,221.04 L 0,544.45 0,323.41 Z" />
    </clipPath>
    <clipPath
       id="clipPath4115"
       clipPathUnits="userSpaceOnUse">
      <path
         inkscape:connector-curvature="0"
         id="path4117"
         d="m 0,323.41 425.197,0 0,221.04 L 0,544.45 0,323.41 Z" />
    </clipPath>
    <clipPath
       id="clipPath4119"
       clipPathUnits="userSpaceOnUse">
      <path
         inkscape:connector-curvature="0"
         id="path4121"
         d="m 0,323.41 425.197,0 0,221.04 L 0,544.45 0,323.41 Z" />
    </clipPath>
    <clipPath
       id="clipPath4123"
       clipPathUnits="userSpaceOnUse">
      <path
         inkscape:connector-curvature="0"
         id="path4125"
         d="m 0,323.41 425.197,0 0,221.04 L 0,544.45 0,323.41 Z" />
    </clipPath>
    <clipPath
       id="clipPath4127"
       clipPathUnits="userSpaceOnUse">
      <path
         inkscape:connector-curvature="0"
         id="path4129"
         d="m 0,323.41 425.197,0 0,221.04 L 0,544.45 0,323.41 Z" />
    </clipPath>
    <clipPath
       id="clipPath4131"
       clipPathUnits="userSpaceOnUse">
      <path
         inkscape:connector-curvature="0"
         id="path4133"
         d="m 0,323.41 425.197,0 0,221.04 L 0,544.45 0,323.41 Z" />
    </clipPath>
    <clipPath
       id="clipPath4135"
       clipPathUnits="userSpaceOnUse">
      <path
         inkscape:connector-curvature="0"
         id="path4137"
         d="m 0,323.41 425.197,0 0,221.04 L 0,544.45 0,323.41 Z" />
    </clipPath>
    <clipPath
       id="clipPath4139"
       clipPathUnits="userSpaceOnUse">
      <path
         inkscape:connector-curvature="0"
         id="path4141"
         d="m 0,323.41 425.197,0 0,221.04 L 0,544.45 0,323.41 Z" />
    </clipPath>
    <clipPath
       id="clipPath4143"
       clipPathUnits="userSpaceOnUse">
      <path
         inkscape:connector-curvature="0"
         id="path4145"
         d="m 0,323.41 425.197,0 0,221.04 L 0,544.45 0,323.41 Z" />
    </clipPath>
    <clipPath
       id="clipPath4147"
       clipPathUnits="userSpaceOnUse">
      <path
         inkscape:connector-curvature="0"
         id="path4149"
         d="m 0,323.41 425.197,0 0,221.04 L 0,544.45 0,323.41 Z" />
    </clipPath>
    <clipPath
       id="clipPath4151"
       clipPathUnits="userSpaceOnUse">
      <path
         inkscape:connector-curvature="0"
         id="path4153"
         d="m 0,323.41 425.197,0 0,221.04 L 0,544.45 0,323.41 Z" />
    </clipPath>
    <clipPath
       id="clipPath4155"
       clipPathUnits="userSpaceOnUse">
      <path
         inkscape:connector-curvature="0"
         id="path4157"
         d="m 0,323.41 425.197,0 0,221.04 L 0,544.45 0,323.41 Z" />
    </clipPath>
    <clipPath
       id="clipPath4159"
       clipPathUnits="userSpaceOnUse">
      <path
         inkscape:connector-curvature="0"
         id="path4161"
         d="m 0,323.41 425.197,0 0,221.04 L 0,544.45 0,323.41 Z" />
    </clipPath>
    <clipPath
       id="clipPath4163"
       clipPathUnits="userSpaceOnUse">
      <path
         inkscape:connector-curvature="0"
         id="path4165"
         d="m 0,323.41 425.197,0 0,221.04 L 0,544.45 0,323.41 Z" />
    </clipPath>
    <clipPath
       id="clipPath4167"
       clipPathUnits="userSpaceOnUse">
      <path
         inkscape:connector-curvature="0"
         id="path4169"
         d="m 0,323.41 425.197,0 0,221.04 L 0,544.45 0,323.41 Z" />
    </clipPath>
    <clipPath
       id="clipPath4171"
       clipPathUnits="userSpaceOnUse">
      <path
         inkscape:connector-curvature="0"
         id="path4173"
         d="m 0,323.41 425.197,0 0,221.04 L 0,544.45 0,323.41 Z" />
    </clipPath>
    <clipPath
       id="clipPath4175"
       clipPathUnits="userSpaceOnUse">
      <path
         inkscape:connector-curvature="0"
         id="path4177"
         d="m 0,323.41 425.197,0 0,221.04 L 0,544.45 0,323.41 Z" />
    </clipPath>
    <clipPath
       id="clipPath4179"
       clipPathUnits="userSpaceOnUse">
      <path
         inkscape:connector-curvature="0"
         id="path4181"
         d="m 0,323.41 425.197,0 0,221.04 L 0,544.45 0,323.41 Z" />
    </clipPath>
    <clipPath
       id="clipPath4183"
       clipPathUnits="userSpaceOnUse">
      <path
         inkscape:connector-curvature="0"
         id="path4185"
         d="m 0,323.41 425.197,0 0,221.04 L 0,544.45 0,323.41 Z" />
    </clipPath>
    <clipPath
       id="clipPath14987"
       clipPathUnits="userSpaceOnUse">
      <path
         inkscape:connector-curvature="0"
         id="path14989"
         d="m 0,0 425.197,0 0,561.26 L 0,561.26 0,0 Z" />
    </clipPath>
    <inkscape:perspective
       id="perspective2447"
       inkscape:persp3d-origin="372.04722 : 350.78742 : 1"
       inkscape:vp_z="744.09445 : 526.18114 : 1"
       inkscape:vp_y="0 : 1000.0001 : 0"
       inkscape:vp_x="0 : 526.18114 : 1"
       sodipodi:type="inkscape:persp3d" />
  </defs>
  <sodipodi:namedview
     id="base"
     pagecolor="#ffffff"
     bordercolor="#666666"
     borderopacity="1.0"
     inkscape:pageopacity="0.0"
     inkscape:pageshadow="2"
     inkscape:zoom="1"
     inkscape:cx="323.39874"
     inkscape:cy="155.77336"
     inkscape:document-units="px"
     inkscape:current-layer="layer1"
     showgrid="false"
     fit-margin-top="0"
     fit-margin-left="0"
     fit-margin-right="0"
     fit-margin-bottom="0"
     inkscape:window-width="1858"
     inkscape:window-height="1053"
     inkscape:window-x="-8"
     inkscape:window-y="-8"
     inkscape:window-maximized="1" />
  <metadata
     id="metadata7">
    <rdf:RDF>
      <cc:Work
         rdf:about="">
        <dc:format>image/svg+xml</dc:format>
        <dc:type
           rdf:resource="http://purl.org/dc/dcmitype/StillImage" />
        <dc:title></dc:title>
      </cc:Work>
    </rdf:RDF>
  </metadata>
  <g
     inkscape:label="Calque 1"
     inkscape:groupmode="layer"
     id="layer1"
     transform="translate(-212.27147,92.121406)">
    <g
       id="g36960"
       transform="matrix(1.6999673,0,0,1.6999673,-205.58145,5.3577358)">
      <path
         inkscape:connector-curvature="0"
         id="path4077"
         style="fill:#003380;fill-opacity:1;fill-rule:nonzero;stroke:none"
         d="m 268.79304,-6.8492785 -3.05165,0 0,3.8618325 3.05165,0 0,-3.8618325 z M 255.45217,22.362018 c 4.40195,5.815254 12.14362,4.487468 12.14362,4.487468 0.9407,-8.232275 -2.39002,-10.90135 -2.39002,-10.90135 -2.07045,4.370442 1.05773,9.645579 1.05773,9.645579 -4.70351,-4.343436 -10.81133,-3.231697 -10.81133,-3.231697 m 8.03423,-45.180739 -1.48082,-1.381798 c -3.57827,0.909196 -6.17983,4.08238 -6.17983,4.08238 1.67886,-4.019366 0.76966,-7.782177 0.018,-9.780608 l -1.07573,-0.88219 c -3.10567,5.887269 0.33307,12.346161 0.33307,12.346161 4.77553,-1.147747 7.19705,-3.033654 8.38531,-4.383945 m 9.99215,53.71908 c -0.15735,-2.556551 -0.62113,-4.419953 -1.19725,-5.909774 l -2.94364,0.0045 c 0.79667,2.795103 2.60606,4.901557 2.60606,4.901557 -5.39216,-3.465747 -11.21191,-1.309783 -11.21191,-1.309783 5.34715,4.96457 12.74674,2.313499 12.74674,2.313499 m -0.72465,-43.641408 0,33.532229 16.61308,0 c 1.8769,0.04951 3.81232,1.521328 3.81232,1.521328 l 0,-26.825783 c -10.06417,-0.2160465 -12.08961,-8.227774 -12.08961,-8.227774 l -8.33579,0 z m 7.86319,20.3848947 -1.24677,0 0,6.4903993 -1.57534,0 0,-6.4903993 -1.23326,0 0,-1.4808192 4.05537,0 0,1.4808192 z m 7.83619,6.6164263 c -0.44559,0 -0.99471,-0.135029 -1.35479,-0.400586 l 0,-1.503324 c 0.37358,0.256555 0.72916,0.427592 1.19726,0.427592 0.50411,0 0.90919,-0.342074 0.90919,-0.868688 0,-0.612131 -0.4906,-0.846182 -0.9317,-1.165751 -0.90919,-0.612132 -1.46731,-1.2017589 -1.46731,-2.3630092 0,-1.2602717 0.72915,-2.3495065 2.07945,-2.3495065 0.50861,0 0.9632,0.1395301 1.3953,0.3915844 l 0,1.5348309 c -0.31975,-0.2745592 -0.70666,-0.5086097 -1.13875,-0.5086097 -0.4906,0 -0.79667,0.2970641 -0.79667,0.7831689 0,1.3097823 2.39902,1.3862988 2.39902,3.5422632 0,1.413305 -0.81018,2.480035 -2.291,2.480035 m 1.17025,-17.7968364 1.57534,0 0,7.9712183 -1.57534,0 0,-7.9712183 z m -4.95556,0 1.58884,0 c 1.00372,0 2.7951,0.1035223 2.7951,2.2819919 0,0.8776892 -0.34639,1.62485026 -1.12524,2.05694341 l 1.3818,3.62778199 -1.66086,0 -1.3818,-3.67729267 -0.0216,0 0,3.67729267 -1.57534,0 0,-7.9667173 z m 1.66085,17.6708094 -1.67886,0 -0.29706,-1.341289 -1.59785,0 -0.28806,1.341289 -1.56183,0 1.84989,-7.9712185 1.65636,0 1.91741,7.9712185 z m -1.98042,-17.6708094 0,1.4763182 -1.59785,0 0,1.73287357 1.40431,0 0,1.48081923 -1.40431,0 0,1.8003881 1.61585,0 0,1.4763182 -3.18669,0 0,-7.9577154 -2.20997,7.9577154 -1.28728,0 -2.3045,-7.9667173 1.68787,0 0.9542,3.8258247 c 0.13935,0.45009702 0.18904,0.909196 0.28374,1.359293 l 0.0216,0 c 0.0857,-0.4635999 0.11702,-0.91369695 0.24305,-1.38179785 l 0.96321,-3.80331985 4.81604,0 z m 26.96981,-26.5287186 -4.97807,5.414667 0.0493,8.655366 c 0,0 -0.15303,1.426808 -0.4591,2.13346 l 3.20019,0 9.14597,-9.145972 -6.9585,-7.057521 z m -42.42614,41.458437 -3.05166,0 0,3.857331 3.05166,0 0,-3.857331 z m 4.97807,-37.448073 6.40488,6.301359 0,-4.874551 -6.40488,-6.404881 0,4.978073 z m -5.05009,53.975636 c 0.40059,0 0.72466,-0.32407 0.72466,-0.724657 0,-0.396085 -0.32407,-0.724656 -0.72466,-0.724656 -0.39609,0 -0.72016,0.328571 -0.72016,0.724656 0,0.400587 0.32407,0.724657 0.72016,0.724657 m -11.5945,-51.590121 c 0,0.396085 0.32407,0.720155 0.72466,0.720155 0.40058,0 0.72015,-0.32407 0.72015,-0.720155 0,-0.400587 -0.31975,-0.724657 -0.72015,-0.724657 -0.40059,0 -0.72466,0.32407 -0.72466,0.724657 m 11.63951,46.310483 c 0.0252,0.32857 0.09,-0.07202 0.09,-0.07202 l 0,-4.712516 -0.77867,0.864186 c 0.4411,1.188257 0.59413,2.894124 0.68865,3.920346 m 11.40996,-39.982119 0,-0.990214 -4.72602,-4.726018 -11.07239,0 6.25185,5.716232 9.54656,0 z m -24.02618,-13.448899 c 0,0 -0.41409,-2.579056 2.27749,-6.44539 l -9.09196,0 c 0,0 0.38708,1.057728 6.81447,6.44539 m -7.8812,14.187058 c -1.62485,7.1115329 4.37044,12.1931284 4.37044,12.1931284 6.90449,-4.5729858 6.80547,-8.8399054 6.80547,-8.8399054 -4.67201,1.219763 -6.70645,7.0125114 -6.70645,7.0125114 0.30607,-6.4048804 -4.46946,-10.3657344 -4.46946,-10.3657344 m 5.35616,3.29471 c 1.4088,-6.251848 -2.60156,-10.982367 -2.60156,-10.982367 -2.84012,6.719948 2.18297,12.764751 2.18297,12.764751 7.59763,-3.303712 8.24127,-7.521121 8.24127,-7.521121 -4.81604,0.387084 -7.82268,5.738737 -7.82268,5.738737 m 0.63913,2.979642 c 0,-0.396085 -0.32407,-0.724656 -0.72465,-0.724656 -0.40059,0 -0.72466,0.328571 -0.72466,0.724656 0,0.4005868 0.32407,0.7246567 0.72466,0.7246567 0.40058,0 0.72465,-0.3240699 0.72465,-0.7246567 m 37.04299,36.660403 4.76653,0 c 0,0 0.31506,-2.070446 1.66085,-2.070446 l 19.79527,0 0,-34.828508 -1.96692,-2.070446 0,34.51344 -17.72482,0 c 0,0 -2.38552,0.207044 -4.25342,2.484535 0,0 -1.44931,-2.173968 -4.55498,-2.381013 l -17.31073,0 0,-34.306395 -2.12446,2.124458 0,34.463929 19.32716,0 c 0,0 2.38552,0.09902 2.38552,2.070446 m -31.02069,-63.999296 c -4.96457,5.342652 -2.3135,12.742247 -2.3135,12.742247 8.27279,-0.504109 10.31623,-4.248916 10.31623,-4.248916 -4.65851,-1.282776 -9.31251,2.714085 -9.31251,2.714085 3.46575,-5.392162 1.30978,-11.207416 1.30978,-11.207416 m 23.33303,47.0891509 -0.18004,-1.20626 -0.0216,0 -0.17104,1.20626 -0.33739,2.1199571 1.11174,0 -0.40059,-2.1199571 z M 329.45262,24.40996 c 1.20626,-0.747161 2.34951,-1.76438 3.30371,-3.159681 0,0 -2.61956,-0.342074 -5.68472,0.693149 l 2.38101,2.466532 z m 5.03659,-31.6058132 c 0,0 -2.16497,-5.7432378 -6.86848,-6.8549778 0,0 -0.004,4.2714208 7.01251,8.6823717 0,0 5.87376,-5.2211257 4.08238,-12.2966507 0,0 -4.68101,4.077879 -4.22641,10.4692568 m -8.8084,17.1396947 c 0,0 -2.74559,3.2722055 -0.20705,11.1579055 0,0 7.8542,-0.225049 11.02738,-6.791964 0,0 -6.20234,0.112524 -9.96515,5.302143 0,0 2.02994,-5.792749 -0.85518,-9.6680845 m 8.61936,-10.01915979 c 0,0 -1.13875,-6.03580111 -5.57671,-7.93971151 0,0 -0.74266,4.2039062 5.40117,9.7626045 0,0 6.69294,-4.1183878 6.15282,-11.3964567 0,0 -5.31564,3.2001898 -5.97728,9.57356371 m -5.5362,-1.80939001 c 0,0 -1.45831,4.0148654 3.62328,10.5592762 0,0 7.30508,-2.8941239 8.03874,-10.1586899 0,0 -5.79275,2.22798029 -7.54363,8.3898086 0,0 -0.081,-6.13932345 -4.11839,-8.7903949 m 4.6495,5.3921623 c 0.40059,0 0.72466,-0.3285708 0.72466,-0.7291572 0,-0.3960853 -0.32407,-0.7201552 -0.72466,-0.7201552 -0.40058,0 -0.72465,0.3240699 -0.72465,0.7201552 0,0.4005864 0.32407,0.7291572 0.72465,0.7291572 m -4.23541,12.38667 c 0,-0.400586 -0.31975,-0.724656 -0.72015,-0.724656 -0.40059,0 -0.72466,0.32407 -0.72466,0.724656 0,0.400587 0.32407,0.724656 0.72466,0.724656 0.40058,0 0.72015,-0.324069 0.72015,-0.724656 m -61.19969,-43.132798 0.004,0 c -0.28806,0.22955 -2.3,2.065946 -5.36516,2.439526 l 1.04423,0.981212 10.97336,-0.04951 -3.40723,-3.402734 -0.004,0 -1.71937,-1.728372 c 0,0 -1.22427,1.557336 -1.52583,1.759879 m 42.42164,35.5036536 -0.0216,0 -0.16636,1.20626 -0.33739,2.1244584 1.10724,0 -0.40509,-2.1244584 -0.17536,-1.20626 z m -22.87843,-9.5105502 c 0,-0.5716232 -0.27474,-1.0352231 -1.06673,-0.9947144 l -0.21136,0 0,2.12445798 0.27906,0.0135029 c 0.71565,0 0.99921,-0.48610479 0.99921,-1.14324648 m 6.77396,-3.470248 0,27.0283266 c 0,0 1.52583,-1.521328 3.65929,-1.521328 l 16.76611,0 0,-33.532229 -9.04244,0 c 0,0 -2.57006,7.9082052 -11.38296,8.0252304 m 2.02094,1.2287649 1.57534,0 0,6.4903991 1.64735,0 0,1.4763182 -3.22269,0 0,-7.9667173 z m 5.1086,17.6753097 -0.37808,-5.7432376 -0.0252,0 -0.25205,1.9669236 -0.67515,3.776314 -1.21526,0 -0.76967,-3.816822 -0.26573,-1.7778836 0,-0.148532 -0.0216,0 -0.23405,5.7432376 -1.68786,0 0.69765,-7.9712179 2.07044,0 0.77417,4.7035139 0.018,0 0.63463,-4.7035139 2.11546,0 0.83268,7.9712179 -1.61585,0 z m 10.08217,0 -0.29274,-1.34579 -1.59785,0 -0.28374,1.34579 -1.56183,0 1.84539,-7.9712179 1.66086,0 1.91291,7.9712179 -1.68336,0 z m -4.79353,-17.6753097 1.77338,0 0.4546,1.1117396 c 0.13503,0.3915844 0.29706,0.8011727 0.37808,1.210761 l 0.0216,0 c 0.0857,-0.4095883 0.21604,-0.8101746 0.36007,-1.210761 l 0.47711,-1.1117396 1.70136,0 -1.70136,3.85733145 1.82739,4.10938585 -1.82739,0 -0.50411,-1.2647726 c -0.14836,-0.4050874 -0.24774,-0.7921708 -0.3554,-1.1927572 l -0.018,0 c -0.11703,0.4005864 -0.21173,0.7876698 -0.3464,1.1927572 l -0.4681,1.2647726 -1.77338,0 1.68786,-4.10938585 -1.68786,-3.85733145 z m 0.42759,9.7040918 0,1.4808192 -1.59784,0 0,1.7283726 1.4088,0 0,1.4853201 -1.4088,0 0,1.795887 1.62035,0 0,1.480819 -3.19119,0 0,-7.9712179 3.16868,0 z m -4.05087,-3.0381549 c 0.76966,0 0.76966,-0.5806252 0.77867,-1.1702523 l 0,-5.4956846 1.57534,0 0,5.8107526 c 0,0.8461824 -0.0947,2.2819919 -2.36752,2.2819919 -1.46731,0 -2.345,-0.6841475 -2.345,-2.1739687 l 0,-5.9187758 1.57534,0 0,5.1581119 c 0,0.60313 -0.0767,1.507825 0.78317,1.507825 M 272.88011,-31.919683 c 0,0 -0.71116,1.039724 -3.42974,1.62485 l 3.42974,3.173184 0,-4.798034 z m 8.70937,13.871991 c 0,8.4348177 5.28864,12.328157 11.80605,12.328157 6.53091,0 11.82405,-3.8798363 11.82405,-12.328157 l 0,-24.044184 -23.6256,0 c 0,0 -0.004,15.618367 -0.004,24.044184 m 5.69373,-17.036173 0,-3.555766 11.07689,0 0,5.081595 3.65479,0 0,3.654788 -3.55127,0 0,1.629351 3.55127,0 0,3.960854 -3.55127,0 0,11.891563 -3.05166,0 -4.21741,-4.22191 -3.85733,3.861833 -2.7951,-2.790602 6.40038,-6.404881 3.30371,3.303713 0,-16.410538 -6.963,0 z m -15.7894,18.634017 2.82211,2.484536 6.36437,0 c -0.30607,-0.504109 -0.20705,-2.435025 -0.20705,-2.435025 l -8.97943,-0.04951 z m 51.19853,31.790353 c 0,0 -0.51311,0.540116 -0.68414,1.359293 l 1.53033,1.588842 c -0.0857,-0.990213 -0.3374,-1.99843 -0.84619,-2.948135 m -60.17797,6.499401 c 2.35401,-7.944213 -0.4681,-11.144402 -0.4681,-11.144402 -2.7951,3.933848 -0.63014,9.677086 -0.63014,9.677086 -3.87983,-5.0996 -10.08667,-5.063592 -10.08667,-5.063592 3.32622,6.4949 11.18491,6.530908 11.18491,6.530908 m -0.39158,-52.643348 c 8.23227,0.940703 10.89234,-2.394516 10.89234,-2.394516 -4.35693,-2.070447 -9.64107,1.057728 -9.64107,1.057728 4.35243,-4.708015 3.24069,-10.811331 3.24069,-10.811331 -5.81975,4.401949 -4.49196,12.148119 -4.49196,12.148119 M 279.353,27.421109 c 0.39159,4.820539 5.73874,7.822686 5.73874,7.822686 -6.24735,-1.408803 -10.98237,2.606062 -10.98237,2.606062 6.72445,2.835611 12.76925,-2.182971 12.76925,-2.182971 -3.30371,-7.602138 -7.52562,-8.245777 -7.52562,-8.245777 M 258.37888,16.020151 c 3.6953,-7.4085967 1.47632,-11.0543826 1.47632,-11.0543826 -3.44324,3.3892306 -2.3045,9.4250316 -2.3045,9.4250316 -2.93913,-5.6982282 -9.05595,-6.7424533 -9.05595,-6.7424533 2.15146,6.9720033 9.88413,8.3718043 9.88413,8.3718043 m 16.60858,8.992939 -1.02622,-0.009 c -0.0587,4.554982 4.32543,8.142255 4.32543,8.142255 -5.91427,-2.475534 -11.27043,0.657142 -11.27043,0.657142 6.13032,3.960854 12.95379,0.06301 12.95379,0.06301 -1.32778,-5.536193 -3.65929,-7.908204 -4.98257,-8.853408 m -15.25379,3.438741 c 0,0 1.12524,-0.670644 2.7636,-0.913697 l -1.81389,-0.432093 -0.17572,0.22955 c 0.099,-0.144032 0.17572,-0.22955 0.17572,-0.22955 l -8.04774,8.466325 c 0,0 -0.9137,1.323285 -0.0497,2.187472 0,0 0.81018,0.661642 1.93092,-0.09902 l 7.83619,-6.854977 c -0.79217,-0.409589 -2.52505,-1.849899 -2.61957,-2.354008 M 255.31354,9.5747619 c 4.92856,-6.6614359 3.37123,-10.6357927 3.37123,-10.6357927 -3.97436,2.7455919 -3.90235,8.8849153 -3.90235,8.8849153 -1.90391,-6.1213195 -7.74617,-8.21427071 -7.74617,-8.21427071 0.9047,7.24656211 8.27729,9.96514811 8.27729,9.96514811 m 4.13189,-47.6697759 -9.52855,-9.528554 c 0,0 -3.98336,2.858116 -0.8867,9.528554 l 10.41525,0 z m 4.30743,-3.465747 -5.60371,-5.65772 c -3.47025,-3.465747 -7.58414,-1.179254 -7.58414,-1.179254 l 11.03638,10.986868 c 0.73816,-2.817607 2.15147,-4.149894 2.15147,-4.149894 M 253.43213,3.7009957 c 0,0.4005864 0.32407,0.7246563 0.72466,0.7246563 0.40059,0 0.72015,-0.3240699 0.72015,-0.7246563 0,-0.4005863 -0.31974,-0.7246562 -0.72015,-0.7246562 -0.40059,0 -0.72466,0.3240699 -0.72466,0.7246562 m -0.018,-1.0037163 c 6.00879,-5.7072303 5.16711,-9.8886317 5.16711,-9.8886317 -4.39294,2.0119337 -5.38766,8.0702397 -5.38766,8.0702397 -0.81017,-6.359871 -6.20234,-9.4340336 -6.20234,-9.4340336 -0.36457,7.2915718 6.42289,11.2524256 6.42289,11.2524256 m 5.27514,14.0295246 c 0,0.400586 0.32407,0.724656 0.72465,0.724656 0.40059,0 0.72466,-0.32407 0.72466,-0.724656 0,-0.400587 -0.32407,-0.724657 -0.72466,-0.724657 -0.40058,0 -0.72465,0.32407 -0.72465,0.724657 m 60.60106,10.568278 c 0.40059,0 0.72466,-0.32407 0.72466,-0.724656 0,-0.400587 -0.32407,-0.724657 -0.72466,-0.724657 -0.40059,0 -0.72466,0.32407 -0.72466,0.724657 0,0.400586 0.32407,0.724656 0.72466,0.724656 m 3.84833,-0.940703 -2.54755,-2.074947 c 0.054,0.648139 0.13935,1.332287 0.25674,2.065945 0,0 0.91819,0.108023 2.29099,0.009 m 7.12504,-12.818763 c 0,0 0.99471,-6.0583062 -2.52505,-9.3665193 0,0 -2.13346,3.6952965 1.73738,11.0183753 0,0 7.69665,-1.579841 9.68158,-8.6013543 0,0 -6.09431,1.1882561 -8.89391,6.9494983 m -48.29992,20.213857 c 0,-0.400586 -0.32407,-0.724656 -0.72465,-0.724656 -0.40059,0 -0.72466,0.32407 -0.72466,0.724656 0,0.400586 0.32407,0.724656 0.72466,0.724656 0.40058,0 0.72465,-0.32407 0.72465,-0.724656 m 34.27489,-4.370442 c 0,0 1.57084,-1.881406 2.34051,-4.527976 l -2.94364,-0.04501 c -0.4681,1.444812 -0.81917,3.281208 -0.90469,5.61271 0,0 6.35987,2.110955 11.45497,-1.575339 l -1.96243,-1.579841 c -2.17397,-0.121526 -5.15811,0.202544 -7.98472,2.115456 m 2.14246,-11.73853 0,3.861832 17.27473,14.326588 3.45224,0 -17.58079,-18.18842 -3.14618,0 z m -25.30445,16.662591 0,1.80489 c -0.83268,-1.309783 -4.08688,-6.071809 -7.76417,-6.30586 0,0 1.25127,4.253417 6.75595,6.755957 0,0 -6.90899,0.454598 -9.7266,4.235413 0,0 6.0223,0.544617 10.73482,-4.140893 l 0,2.939134 1.83189,0 0,-3.15068 0,-2.137961 -1.83189,0 z m 3.05166,2.236983 c 5.48668,-2.538548 6.70644,-6.805467 6.70644,-6.805467 -4.26692,0.301565 -7.92621,6.706445 -7.92621,6.706445 4.77553,4.874551 10.97337,4.26692 10.97337,4.26692 -2.84461,-3.762811 -9.7536,-4.167898 -9.7536,-4.167898 m 7.08902,-1.507825 c 0,0 5.27964,-3.132676 5.5542,-7.953215 0,0 -4.2039,0.74266 -7.32758,8.416815 0,0 6.15733,4.87455 12.81427,1.885906 0,0 -4.82505,-3.906842 -11.04089,-2.349506 m 6.75596,-2.259487 c 0,0 4.10039,-3.519759 4.13639,-7.917207 l -1.46281,0.05851 c -1.32329,1.16125 -3.26321,3.627782 -4.33894,8.623859 0,0 6.91799,3.731304 12.94479,-0.36908 0,0 -5.42817,-3.006648 -11.27943,-0.396085 m -3.63228,0.69765 c 0,0.400586 0.32407,0.724656 0.72465,0.724656 0.40059,0 0.72466,-0.32407 0.72466,-0.724656 0,-0.400586 -0.32407,-0.724656 -0.72466,-0.724656 -0.40058,0 -0.72465,0.32407 -0.72465,0.724656 m 25.59702,-52.805383 c 0,0 3.7358,-6.91349 -0.36908,-12.949291 0,0 -3.00215,5.42817 -0.39159,11.283932 0,0 -3.99686,-4.654003 -8.79489,-4.091382 0,0 1.45831,4.014866 9.55556,5.756741 m -17.57179,-16.162984 2.19197,-2.268489 c -1.8679,-0.432093 -5.37416,-1.057728 -8.20977,1.057728 0,0 1.45832,1.651856 6.0178,1.210761 m 14.58314,11.725027 c 0.40059,0 0.72466,-0.32407 0.72466,-0.724656 0,-0.396085 -0.32407,-0.724656 -0.72466,-0.724656 -0.40058,0 -0.72465,0.328571 -0.72465,0.724656 0,0.400586 0.32407,0.724656 0.72465,0.724656 m 4.95107,11.301937 c 0,0 4.87905,-6.161829 1.8814,-12.818764 0,0 -3.90234,4.829541 -2.345,11.049882 0,0 -3.12818,-5.284139 -7.95322,-5.558698 0,0 0.74266,4.203906 8.41682,7.32758 m -10.54577,-34.69798 c 2.28199,1.134244 4.12288,-0.05401 4.12288,-0.05401 2.54305,-1.246768 4.37945,0.481604 4.37945,0.481604 1.77338,1.386299 1.48532,3.209192 1.48532,3.209192 0,1.399802 -0.40509,1.494322 -0.40509,1.494322 -0.84618,0.580625 -0.63464,-0.400586 -0.63464,-0.400586 0.0252,-0.01368 0.19337,-0.688649 0.19337,-0.688649 0.33307,-3.15518 -2.49804,-3.609778 -2.49804,-3.609778 -3.00665,-0.526613 -3.75381,2.250485 -3.75381,2.250485 -0.18904,0.765165 -0.20705,1.444812 -0.12135,2.043441 l -3.75381,-3.753809 0.17572,3.173184 8.38531,8.380806 2.99765,0 -3.04266,-3.042656 c 1.60685,0.504109 3.01565,0.558121 3.01565,0.558121 4.28042,-0.261057 4.73052,-4.35694 4.73052,-4.35694 1.12974,-4.275921 -2.92563,-7.732666 -2.92563,-7.732666 -2.70508,-2.322501 -6.79647,-2.511542 -6.79647,-2.511542 -5.81975,-0.675145 -7.8857,-4.392947 -7.8857,-4.392947 -0.67964,1.692365 -0.50411,4.194904 -0.50411,4.194904 0.38709,3.857332 2.83562,4.757526 2.83562,4.757526 m 9.51505,35.886236 c 0,0.400586 0.32407,0.724656 0.72465,0.724656 0.39609,0 0.72466,-0.32407 0.72466,-0.724656 0,-0.400587 -0.32875,-0.724656 -0.72466,-0.724656 -0.40058,0 -0.72465,0.324069 -0.72465,0.724656 m -15.88393,-27.041829 1.77339,-1.795888 c -0.75167,-2.534046 -2.2775,-5.590205 -6.04481,-7.408597 0,0 -0.15735,5.419169 4.27142,9.204485 m 4.44696,50.073294 -3.05166,0 0,3.861832 3.05166,0 0,-3.861832 z m 2.36751,-38.258248 c 1.34579,0.382583 2.99765,0.670645 5.01858,0.751662 0,0 0.9182,-2.732088 0.52212,-6.053805 l -2.64207,2.529546 c 0.28338,0.670644 0.64364,1.34579 1.09373,2.011933 0,0 -0.72915,-0.598629 -1.89491,-1.246768 l -2.09745,2.007432 z m -57.91398,-8.241276 c 0,0.400586 0.32407,0.724656 0.72465,0.724656 0.40059,0 0.72466,-0.32407 0.72466,-0.724656 0,-0.400586 -0.32407,-0.724656 -0.72466,-0.724656 -0.40058,0 -0.72465,0.32407 -0.72465,0.724656 m 63.76974,0.873188 -7.82268,-7.822686 -7.01251,7.615641 7.52112,7.4221 7.31407,-7.215055 z m -16.60858,0.252054 -1.57534,1.881406 8.53384,8.538341 1.72838,-1.728373 -8.68688,-8.691374 z m 8.23228,26.4702065 -3.05166,0 0,3.8618325 3.05166,0 0,-3.8618325 z M 284.75475,-44.022792 c 0,0 2.39901,1.584342 6.61192,-1.318784 0,0 -5.21662,-2.142462 -6.61192,1.318784 m 27.18586,2.732089 c 0,0 -2.37202,-0.715654 -5.36516,0.301565 l -0.004,2.732089 c 1.82289,-0.03601 3.67279,-0.477103 7.02151,-2.245984 0,0 -1.58434,-7.696659 -8.60135,-9.677086 0,0 1.18375,6.089813 6.9495,8.889416 m -31.46629,3.398233 0.0587,-2.655573 c -2.95714,-0.868687 -5.94579,-0.301565 -5.94579,-0.301565 5.69373,-2.939133 6.73796,-9.055952 6.73796,-9.055952 -6.97201,2.146963 -8.37631,9.87963 -8.37631,9.87963 3.21819,1.602345 5.72073,2.092951 7.52562,2.13346 m -2.19197,1.539331 c -3.93835,-2.799603 -9.68159,-0.634636 -9.68159,-0.634636 5.0996,-3.879837 5.06359,-10.086675 5.06359,-10.086675 -6.4949,3.330718 -6.5309,11.184911 -6.5309,11.184911 7.94421,2.358509 11.1489,-0.4636 11.1489,-0.4636 m -0.4501,-5.828756 c 0,0.400586 0.32407,0.724656 0.72466,0.724656 0.40059,0 0.72466,-0.32407 0.72466,-0.724656 0,-0.400586 -0.32407,-0.724656 -0.72466,-0.724656 -0.40059,0 -0.72466,0.32407 -0.72466,0.724656 m 1.75538,-0.765165 5.46418,-0.07652 c -1.69687,-1.021721 -3.55577,-0.985713 -3.55577,-0.985713 6.11682,-1.90391 7.8632,-7.359086 7.8632,-7.359086 -7.23756,0.904695 -9.96065,8.277284 -9.96065,8.277284 0.0947,0.07202 0.0947,0.07202 0.18904,0.144031 m 29.17529,0.36908 c 0,-0.400587 -0.31975,-0.724657 -0.72015,-0.724657 -0.40059,0 -0.72466,0.32407 -0.72466,0.724657 0,0.400586 0.32407,0.724656 0.72466,0.724656 0.40058,0 0.72015,-0.32407 0.72015,-0.724656 m -3.83483,-1.431309 c 0,0 -1.8589,-0.03601 -3.55576,0.985713 l 5.46418,0.07652 c 0.0947,-0.07202 0.099,-0.07202 0.18904,-0.144031 0,0 -2.71859,-7.372589 -9.96065,-8.277284 0,0 1.74638,5.455176 7.86319,7.359086 m -11.74753,-0.83718 c 0.53562,0 0.96771,-0.436594 0.96771,-0.97221 0,-0.535615 -0.43209,-0.967709 -0.96771,-0.967709 -0.53561,0 -0.97221,0.432094 -0.97221,0.967709 0,0.535616 0.4366,0.97221 0.97221,0.97221 m 8.48433,0.504108 c -1.52583,-3.407234 -6.65693,-1.06673 -6.65693,-1.06673 4.32093,2.741091 6.65693,1.06673 6.65693,1.06673" />
    </g>
  </g>
</svg>
